<svg fill="white" xmlns="http://www.w3.org/2000/svg" viewBox="0 0 24 24"><path fill-rule="evenodd" d="M3.75 4.5a.75.75 0 0 1 .75-.75h6a.75.75 0 0 1 .75.75v6a.75.75 0 0 1-.75.75h-6a.75.75 0 0 1-.75-.75zm1.5.75v4.5h4.5v-4.5zm7.5-.75a.75.75 0 0 1 .75-.75h6a.75.75 0 0 1 .75.75v6a.75.75 0 0 1-.75.75h-6a.75.75 0 0 1-.75-.75zm1.5.75v4.5h4.5v-4.5zM3.75 13.5a.75.75 0 0 1 .75-.75h6a.75.75 0 0 1 .75.75v6a.75.75 0 0 1-.75.75h-6a.75.75 0 0 1-.75-.75zm1.5.75v4.5h4.5v-4.5zm7.5-.75a.75.75 0 0 1 .75-.75h6a.75.75 0 0 1 .75.75v6a.75.75 0 0 1-.75.75h-6a.75.75 0 0 1-.75-.75zm1.5.75v4.5h4.5v-4.5z" clip-rule="evenodd"></path></svg>