<svg fill="white" xmlns="http://www.w3.org/2000/svg" viewBox="0 0 24 24"><path fill-rule="evenodd" d="M8.788 1.996a.75.75 0 0 1 .617.07l2.192 1.316a9 9 0 0 1 .807 0l2.183-1.307a.75.75 0 0 1 .61-.071 10.4 10.4 0 0 1 3.861 2.223.75.75 0 0 1 .245.567l-.043 2.548q.222.342.407.704l2.223 1.236a.75.75 0 0 1 .367.492c.327 1.465.33 2.983.01 4.449a.75.75 0 0 1-.37.496l-2.23 1.235a8 8 0 0 1-.407.704l.043 2.548a.75.75 0 0 1-.245.567 10.5 10.5 0 0 1-3.846 2.231.75.75 0 0 1-.617-.07l-2.192-1.316a9 9 0 0 1-.806 0l-2.184 1.307a.75.75 0 0 1-.61.071 10.4 10.4 0 0 1-3.861-2.223.75.75 0 0 1-.245-.567l.043-2.543a8 8 0 0 1-.407-.71l-2.222-1.235a.75.75 0 0 1-.368-.492 10.3 10.3 0 0 1-.01-4.449.75.75 0 0 1 .37-.496l2.23-1.235a8 8 0 0 1 .407-.704l-.043-2.548a.75.75 0 0 1 .245-.567 10.5 10.5 0 0 1 3.846-2.231m-2.585 3.12.04 2.437a.75.75 0 0 1-.134.442 6 6 0 0 0-.527.91.75.75 0 0 1-.315.339l-2.134 1.181a8.8 8.8 0 0 0 .008 3.15l2.127 1.182a.75.75 0 0 1 .313.335q.23.486.532.929a.75.75 0 0 1 .13.435l-.04 2.428A8.9 8.9 0 0 0 8.94 20.46l2.084-1.247a.75.75 0 0 1 .439-.105q.537.039 1.074 0a.75.75 0 0 1 .44.105l2.09 1.255c.997-.363 1.921-.9 2.73-1.584l-.04-2.437a.75.75 0 0 1 .134-.442q.303-.433.527-.91a.75.75 0 0 1 .316-.339l2.133-1.181a8.8 8.8 0 0 0-.008-3.15l-2.126-1.182a.75.75 0 0 1-.315-.337 6 6 0 0 0-.527-.91.75.75 0 0 1-.135-.443l.041-2.437A8.9 8.9 0 0 0 15.06 3.54l-2.084 1.247a.75.75 0 0 1-.439.105 7.5 7.5 0 0 0-1.074 0 .75.75 0 0 1-.44-.105l-2.09-1.255a9 9 0 0 0-2.73 1.584M12 8.25a3.75 3.75 0 1 0 0 7.5 3.75 3.75 0 0 0 0-7.5M6.75 12a5.25 5.25 0 1 1 10.5 0 5.25 5.25 0 0 1-10.5 0" clip-rule="evenodd"></path></svg>