<svg fill="white" xmlns="http://www.w3.org/2000/svg" viewBox="0 0 24 24"><path fill-rule="evenodd" d="M1.94 4.94A1.5 1.5 0 0 1 3 4.5h6A3.75 3.75 0 0 1 12 6a3.75 3.75 0 0 1 3-1.5h6A1.5 1.5 0 0 1 22.5 6v12a1.5 1.5 0 0 1-1.5 1.5h-6a2.25 2.25 0 0 0-2.25 2.25.75.75 0 0 1-1.5 0A2.25 2.25 0 0 0 9 19.5H3A1.5 1.5 0 0 1 1.5 18V6c0-.398.158-.78.44-1.06m9.31 13.81A3.75 3.75 0 0 0 9 18H3V6h6a2.25 2.25 0 0 1 2.25 2.25zm1.5 0A3.75 3.75 0 0 1 15 18h6V6h-6a2.25 2.25 0 0 0-2.25 2.25z" clip-rule="evenodd"></path></svg>