<svg fill="white" xmlns="http://www.w3.org/2000/svg" viewBox="0 0 24 24"><path d="M8.625 11.25a1.125 1.125 0 1 0 0-2.25 1.125 1.125 0 0 0 0 2.25M15.375 11.25a1.125 1.125 0 1 0 0-2.25 1.125 1.125 0 0 0 0 2.25"></path><path fill-rule="evenodd" d="M12 3.75a8.25 8.25 0 1 0 0 16.5 8.25 8.25 0 0 0 0-16.5M2.25 12c0-5.385 4.365-9.75 9.75-9.75s9.75 4.365 9.75 9.75-4.365 9.75-9.75 9.75S2.25 17.385 2.25 12m5.474 1.601a.75.75 0 0 1 1.025.272 3.76 3.76 0 0 0 6.502 0 .75.75 0 1 1 1.298.754 5.26 5.26 0 0 1-9.098 0 .75.75 0 0 1 .272-1.026" clip-rule="evenodd"></path></svg>