<svg fill="white" xmlns="http://www.w3.org/2000/svg" viewBox="0 0 24 24"><path fill-rule="evenodd" d="M21.133 2.14a1.5 1.5 0 0 0-1.59.204A17.3 17.3 0 0 1 12.973 5.8c-1.81.492-2.815.482-2.783.48l-3.939.008a4.5 4.5 0 0 0-.596 8.96L6.76 19.69a1.5 1.5 0 0 0 2.288.88l1.027-.68a1.49 1.49 0 0 0 .675-1.258v-3.29l.039.005c.523.06 1.278.183 2.183.429 1.81.492 4.215 1.48 6.572 3.455A1.5 1.5 0 0 0 22 18.087V3.488a1.5 1.5 0 0 0-.867-1.348M7.21 15.288l1.005 4.035 1.035-.687v-3.348zm-.96-1.5h3v-6h-3a3 3 0 0 0 0 6m4.5-6.047v6.093l.211.023a16.4 16.4 0 0 1 2.405.472 18.8 18.8 0 0 1 7.134 3.747V3.5a18.8 18.8 0 0 1-7.134 3.747 16.4 16.4 0 0 1-2.616.494" clip-rule="evenodd"></path></svg>