<svg fill="currentColor" xmlns="http://www.w3.org/2000/svg" viewBox="0 0 24 24"><path fill-rule="evenodd" d="M11.058 1.275a1.48 1.48 0 0 1 1.887.002c.931.758 2.948 2.639 4.063 5.538.378.982.649 2.072.743 3.264l2.838 3.406a1.46 1.46 0 0 1 .307 1.292l-1.151 5.213v.002a1.5 1.5 0 0 1-2.4.844l-2.608-2.086H9.263l-2.607 2.086a1.5 1.5 0 0 1-2.4-.844v-.002l-1.152-5.213a1.46 1.46 0 0 1 .307-1.292l2.783-3.332c.087-1.223.363-2.34.753-3.344 1.127-2.9 3.168-4.78 4.11-5.534m-3.383 9.241.003-.07a10 10 0 0 1 .668-3.094c.992-2.556 2.813-4.237 3.654-4.91.834.68 2.626 2.36 3.608 4.911.34.884.587 1.882.658 2.991a1 1 0 0 0 .008.136c.098 1.929-.334 4.19-1.717 6.77H9.439c-1.404-2.565-1.852-4.814-1.764-6.734m-1.423 1.908-1.685 2.02 1.152 5.22 2.317-1.854c-1.038-1.938-1.586-3.738-1.784-5.386m9.707 5.383 2.322 1.857 1.152-5.22-1.723-2.07c-.186 1.66-.723 3.475-1.75 5.433M9.75 21a.75.75 0 0 1 .75-.75h3a.75.75 0 0 1 0 1.5h-3a.75.75 0 0 1-.75-.75" clip-rule="evenodd"></path><path d="M12 10.125a1.125 1.125 0 1 0 0-2.25 1.125 1.125 0 0 0 0 2.25"></path></svg>