<svg fill="currentColor" xmlns="http://www.w3.org/2000/svg" viewBox="0 0 24 24"><path fill-rule="evenodd" d="M12.042 3.75a5.99 5.99 0 0 0-5.566 3.696 5.6 5.6 0 0 0-.457 2.297v.757c0 3.462-.726 5.547-1.423 6.75h14.808c-.697-1.203-1.423-3.288-1.423-6.75v-.666c0-3.323-2.652-6.059-5.939-6.084m-2.873-.94a7.5 7.5 0 0 1 2.882-.56h.002c4.138.031 7.428 3.464 7.428 7.584v.666c0 3.25.68 5.065 1.221 6a1.5 1.5 0 0 1-1.293 2.25H15.75a3.75 3.75 0 1 1-7.5 0H4.59a1.5 1.5 0 0 1-1.294-2.25c.542-.935 1.222-2.75 1.222-6v-.747a7.1 7.1 0 0 1 .571-2.881 7.5 7.5 0 0 1 4.08-4.063m.58 15.94a2.25 2.25 0 0 0 4.5 0z" clip-rule="evenodd"></path></svg>