<svg fill="white" xmlns="http://www.w3.org/2000/svg" viewBox="0 0 24 24"><path fill-rule="evenodd" d="M2 4.5A1.5 1.5 0 0 1 3.5 3h17A1.5 1.5 0 0 1 22 4.5v15a1.5 1.5 0 0 1-1.5 1.5h-17A1.5 1.5 0 0 1 2 19.5zm18.5 0h-17v15h17zM12 9a2.25 2.25 0 1 0 0 4.5A2.25 2.25 0 0 0 12 9m2.572 4.979a3.75 3.75 0 1 0-5.145 0 6 6 0 0 0-.67.317c-.939.522-1.665 1.289-1.97 2.22a.75.75 0 0 0 1.426.467c.16-.488.577-.99 1.273-1.376C10.18 15.222 11.066 15 12 15s1.82.222 2.514.607c.696.387 1.113.888 1.273 1.376a.75.75 0 0 0 1.426-.466c-.305-.932-1.031-1.7-1.97-2.221a6 6 0 0 0-.67-.317" clip-rule="evenodd"></path></svg>